<?xml version="1.0" standalone="no"?>
<!DOCTYPE svg PUBLIC "-//W3C//DTD SVG 20010904//EN"
 "http://www.w3.org/TR/2001/REC-SVG-20010904/DTD/svg10.dtd">
<svg version="1.0" xmlns="http://www.w3.org/2000/svg"
 width="400.000000pt" height="400.000000pt" viewBox="0 0 400.000000 400.000000"
 preserveAspectRatio="xMidYMid meet">

<g transform="translate(0.000000,400.000000) scale(0.100000,-0.100000)"
fill="#000000" stroke="none">
<path d="M0 2000 l0 -2000 2000 0 2000 0 0 2000 0 2000 -2000 0 -2000 0 0
-2000z m2243 304 c70 -36 101 -80 118 -170 17 -94 -13 -194 -75 -247 -64 -54
-179 -64 -264 -21 -175 87 -147 407 39 455 47 11 143 3 182 -17z m-1543 1 c74
-38 93 -119 40 -178 l-29 -34 24 -11 c41 -19 58 -56 53 -113 -10 -101 -72
-129 -284 -129 -73 0 -103 4 -105 13 -2 6 -3 114 -1 240 l3 227 135 0 c100 0
142 -4 164 -15z m483 1 c48 -20 69 -50 75 -104 7 -77 -40 -141 -105 -142 -17
-1 -17 -1 0 -11 20 -12 82 -93 121 -160 l27 -47 -58 2 -58 1 -47 70 c-73 107
-92 125 -133 125 l-35 0 0 -100 0 -100 -50 0 -50 0 0 240 0 240 140 0 c96 0
151 -4 173 -14z m265 -223 l-3 -238 -47 -3 c-29 -2 -48 1 -49 7 -1 6 -1 22 -1
36 0 14 0 117 1 230 l1 205 50 0 50 0 -2 -237z m432 197 l0 -40 -70 0 -70 0 0
-200 0 -200 -50 0 -50 0 0 200 0 200 -70 0 -70 0 0 40 0 40 190 0 190 0 0 -40z
m686 -114 c24 -18 10 -35 -16 -19 -27 18 -44 -5 -30 -42 10 -26 11 -27 29 -11
13 11 21 14 26 7 16 -28 -33 -46 -64 -24 -29 19 -28 67 1 87 27 19 29 20 54 2z
m108 -2 c36 -36 2 -112 -43 -97 -42 15 -53 61 -21 93 24 24 43 25 64 4z m74
-16 l8 -33 12 33 c7 20 17 32 24 30 16 -6 24 -108 9 -108 -6 0 -11 15 -12 33
l-1 32 -10 -32 c-12 -38 -37 -44 -39 -10 l-2 22 -4 -22 c-8 -43 -23 -23 -23
32 0 64 24 78 38 23z m157 17 c0 -5 -12 -11 -28 -13 -15 -2 -25 -7 -22 -12 3
-4 14 -6 25 -3 14 4 20 0 20 -11 0 -10 -9 -16 -25 -16 -14 0 -25 -4 -25 -10 0
-5 14 -10 30 -10 17 0 30 -4 30 -10 0 -5 -18 -10 -40 -10 -43 0 -42 -1 -42 75
0 14 0 28 1 31 2 10 76 -1 76 -11z m91 1 c17 -13 17 -18 6 -37 -10 -15 -11
-24 -3 -32 15 -15 14 -27 -2 -27 -7 0 -18 9 -25 20 -15 24 -30 26 -28 4 0 -9
-5 -19 -11 -21 -10 -3 -13 11 -13 51 0 55 1 56 28 56 16 0 37 -6 48 -14z m104
-1 c17 -20 7 -29 -18 -16 -24 13 -32 6 -32 -31 0 -21 5 -28 20 -28 11 0 20 5
20 10 0 6 5 10 11 10 19 0 5 -32 -17 -41 -28 -10 -64 15 -64 44 0 52 52 86 80
52z m50 -40 c0 -30 -4 -55 -10 -55 -5 0 -10 25 -10 55 0 30 5 55 10 55 6 0 10
-25 10 -55z m89 3 c12 -28 19 -53 17 -55 -2 -3 -13 2 -25 9 -17 11 -25 11 -42
0 -29 -18 -30 -13 -13 38 27 78 34 79 63 8z m59 -9 c-4 -25 -1 -29 18 -29 13
0 26 -4 29 -10 4 -6 -10 -10 -34 -10 l-41 0 0 48 c0 27 3 52 7 56 12 11 25
-24 21 -55z m249 44 c3 -7 -2 -13 -11 -13 -12 0 -16 -10 -16 -41 0 -28 -4 -39
-12 -36 -8 2 -12 19 -11 40 2 28 -2 36 -18 40 -12 3 -18 10 -15 15 8 14 79 9
83 -5z m83 -3 c38 -38 18 -90 -35 -90 l-35 0 0 55 c0 52 1 55 25 55 14 0 34
-9 45 -20z m104 -33 c20 -47 16 -71 -6 -49 -15 15 -45 15 -50 1 -2 -7 -9 -10
-15 -8 -14 5 26 111 41 106 6 -2 20 -25 30 -50z m-314 3 c0 -36 3 -40 25 -40
14 0 25 -4 25 -10 0 -5 -18 -10 -40 -10 l-40 0 0 50 c0 38 4 50 15 50 11 0 15
-11 15 -40z m370 -50 c0 -5 -4 -10 -10 -10 -5 0 -10 5 -10 10 0 6 5 10 10 10
6 0 10 -4 10 -10z m-3393 -302 c-3 -7 -5 -2 -5 12 0 14 2 19 5 13 2 -7 2 -19
0 -25z m146 25 c-13 -2 -33 -2 -45 0 -13 2 -3 4 22 4 25 0 35 -2 23 -4z m484
1 c-3 -3 -12 -4 -19 -1 -8 3 -5 6 6 6 11 1 17 -2 13 -5z m143 -4 c13 -9 13
-10 0 -10 -8 0 -22 5 -30 10 -13 9 -13 10 0 10 8 0 22 -5 30 -10z m114 2 c2
-4 -12 -6 -32 -4 -56 5 -62 10 -15 11 23 1 44 -3 47 -7z m170 0 c3 -5 -17 -7
-44 -4 -37 3 -50 1 -50 -8 0 -8 -3 -11 -6 -7 -3 3 -3 10 1 16 7 13 91 15 99 3z
m306 -2 c0 -5 -4 -10 -10 -10 -5 0 -10 5 -10 10 0 6 5 10 10 10 6 0 10 -4 10
-10z m290 0 c13 -9 13 -10 0 -9 -8 0 -24 4 -35 9 l-20 9 20 0 c11 0 27 -4 35
-9z m143 3 c3 -5 -8 -8 -25 -9 -20 -1 -25 2 -16 7 16 11 35 11 41 2z m-1440
-10 c-7 -2 -19 -2 -25 0 -7 3 -2 5 12 5 14 0 19 -2 13 -5z m-210 -10 c-13 -2
-33 -2 -45 0 -13 2 -3 4 22 4 25 0 35 -2 23 -4z m705 0 c-10 -2 -26 -2 -35 0
-10 3 -2 5 17 5 19 0 27 -2 18 -5z m212 -3 c17 -6 9 -7 -25 -3 -27 3 -52 7
-54 9 -8 7 54 2 79 -6z m-697 -7 c-29 -2 -77 -2 -105 0 -29 2 -6 3 52 3 58 0
81 -1 53 -3z m204 0 c-20 -2 -52 -2 -70 0 -17 2 0 4 38 4 39 0 53 -2 32 -4z
m86 0 c-7 -2 -21 -2 -30 0 -10 3 -4 5 12 5 17 0 24 -2 18 -5z m75 0 c-10 -2
-26 -2 -35 0 -10 3 -2 5 17 5 19 0 27 -2 18 -5z m205 0 c-7 -2 -21 -2 -30 0
-10 3 -4 5 12 5 17 0 24 -2 18 -5z m284 0 c-20 -2 -52 -2 -70 0 -17 2 0 4 38
4 39 0 53 -2 32 -4z m266 0 c-35 -2 -91 -2 -125 0 -35 2 -7 3 62 3 69 0 97 -1
63 -3z m104 1 c-3 -3 -12 -4 -19 -1 -8 3 -5 6 6 6 11 1 17 -2 13 -5z m46 -1
c-7 -2 -19 -2 -25 0 -7 3 -2 5 12 5 14 0 19 -2 13 -5z m70 0 c-7 -2 -19 -2
-25 0 -7 3 -2 5 12 5 14 0 19 -2 13 -5z m84 1 c-3 -3 -12 -4 -19 -1 -8 3 -5 6
6 6 11 1 17 -2 13 -5z m111 -1 c-16 -2 -40 -2 -55 0 -16 2 -3 4 27 4 30 0 43
-2 28 -4z m69 1 c-3 -3 -12 -4 -19 -1 -8 3 -5 6 6 6 11 1 17 -2 13 -5z m13
-49 l0 -25 -1000 0 -1000 0 0 25 0 25 1000 0 1000 0 0 -25z"/>
<path d="M2064 2221 c-39 -23 -54 -65 -54 -145 0 -71 22 -116 69 -141 60 -30
119 -14 158 44 18 27 23 48 23 103 0 110 -36 158 -120 158 -27 0 -58 -8 -76
-19z"/>
<path d="M492 2188 l3 -53 60 -3 c75 -3 109 13 113 53 5 42 -19 55 -105 55
l-74 0 3 -52z"/>
<path d="M490 1990 l0 -60 83 0 c93 0 117 13 117 63 0 42 -33 57 -122 57 l-78
0 0 -60z"/>
<path d="M970 2180 l0 -60 73 0 c86 0 117 16 117 60 0 44 -31 60 -117 60 l-73
0 0 -60z"/>
<path d="M2627 2146 c-22 -22 -10 -58 17 -54 25 4 33 39 13 57 -12 9 -18 8
-30 -3z"/>
<path d="M2945 2140 c3 -5 13 -10 21 -10 8 0 14 5 14 10 0 6 -9 10 -21 10 -11
0 -17 -4 -14 -10z"/>
<path d="M3200 2126 c0 -9 5 -16 10 -16 6 0 10 4 10 9 0 6 -4 13 -10 16 -5 3
-10 -1 -10 -9z"/>
<path d="M3580 2120 c0 -23 4 -30 20 -30 16 0 20 7 20 30 0 23 -4 30 -20 30
-16 0 -20 -7 -20 -30z"/>
<path d="M3696 2131 c-4 -7 -5 -15 -2 -18 9 -9 19 4 14 18 -4 11 -6 11 -12 0z"/>
</g>
</svg>
